# xmcd CD database file
#
# Track frame offsets:
#	150
#	32295
#	53620
#	73692
#	87315
#	105895
#	131012
#	143777
#	156237
#	177165
#	195582
#	219802
#	235050
#	256307
#	276782
#	298060
#	318540
#
# Disc length: 4613 seconds
#
# Revision: 0
# Processed by: cddbd v1.4PL0 Copyright (c) Steve Scherf et al.
# Submitted via: CDex 1.50beta10
#
DISCID=ea120311
DTITLE=Various Artist - Danish Trad Jazz 2
DYEAR=1900
DGENRE=Jazz
TTITLE0=Vestre Jazzværk - Burbon Street Parade
TTITLE1=Papa Bue's Viking  Jazzband - Blueberry Hill
TTITLE2=Steen Vig - Perdido Street Stomp
TTITLE3=Rocados Jazzmen - Give me a Kiss...
TTITLE4=Theis/Nyegaards Jazzband - My bucket's got a Hole in it
TTITLE5=Kansas City Stompers - Do you know...
TTITLE6=Søren Sørensens Swingcats - Choo Choo...
TTITLE7=Jørgen Svare - The Man I Love
TTITLE8=Liller/Doc Houlind - Just a Closer Walk
TTITLE9=Neanders Jazzband - Eh La Bas
TTITLE10=Tante Tillies Dodvarmere - Way Down Yonder...
TTITLE11=Jazzkompagniet - Ragtime Music
TTITLE12=Gentlemen Of Jazz - Algier Strut
TTITLE13=Bajazzerne - West End Blues
TTITLE14=Jons Jazzkapel - Lazy ´Sippi Steamer
TTITLE15=Hans Knudsens Jumpband - Pinetop´s Boogie
TTITLE16=Æ Bindstouw Jazzmen - Bill Bailey
EXTD=
EXTT0=
EXTT1=
EXTT2=
EXTT3=
EXTT4=
EXTT5=
EXTT6=
EXTT7=
EXTT8=
EXTT9=
EXTT10=
EXTT11=
EXTT12=
EXTT13=
EXTT14=
EXTT15=
EXTT16=
PLAYORDER=
